<?xml version="1.0" encoding="UTF-8" standalone="no"?>
<!-- Created with Inkscape (http://www.inkscape.org/) -->

<svg
   width="123.69872mm"
   height="152.57053mm"
   viewBox="0 0 123.69872 152.57053"
   version="1.1"
   id="svg5"
   sodipodi:docname="test_drawing.svg"
   xml:space="preserve"
   xmlns:inkscape="http://www.inkscape.org/namespaces/inkscape"
   xmlns:sodipodi="http://sodipodi.sourceforge.net/DTD/sodipodi-0.dtd"
   xmlns="http://www.w3.org/2000/svg"
   xmlns:svg="http://www.w3.org/2000/svg"><sodipodi:namedview
     id="namedview8"
     pagecolor="#ffffff"
     bordercolor="#000000"
     borderopacity="0.25"
     inkscape:showpageshadow="2"
     inkscape:pageopacity="0.0"
     inkscape:pagecheckerboard="0"
     inkscape:deskcolor="#d1d1d1"
     inkscape:document-units="mm"
     showgrid="false" /><defs
     id="defs2" /><path
     style="fill:#000000;fill-opacity:1;fill-rule:nonzero;stroke-width:0.355541;stroke-dasharray:none"
     d="m 37.60773,152.42529 c -1.774244,-0.30622 -3.072599,-1.15089 -4.121087,-2.68106 -0.698161,-1.01889 -0.932168,-1.14175 -1.652802,-0.86777 -1.324254,0.50347 -4.409516,0.37342 -6.320993,-0.26644 -2.342697,-0.78423 -3.556013,-1.6803 -4.000088,-2.95417 -0.314688,-0.90271 -0.216496,-1.34079 0.67498,-3.01137 0.595677,-1.11628 1.043237,-2.49988 1.043237,-3.22508 0,-0.72766 0.146639,-1.17947 0.343357,-1.05788 0.503299,0.31105 0.04944,2.27461 -0.918821,3.97518 -1.036174,1.81985 -1.058154,2.58673 -0.108728,3.79371 0.975234,1.23982 1.29469,1.1797 1.160318,-0.21835 l -0.110875,-1.1537 0.359525,1.15185 c 0.358415,1.14827 1.263783,1.94626 2.688772,2.36984 0.660294,0.19627 0.731593,0.10411 0.589355,-0.76175 l -0.161811,-0.98503 0.736604,1.15369 c 0.586274,0.91824 0.973122,1.1527 1.895512,1.14885 2.001298,-0.008 2.756325,-0.35619 2.756325,-1.26975 0,-0.46026 0.503318,-2.07897 1.118488,-3.59716 0.974864,-2.40591 1.137542,-3.28455 1.266882,-6.84264 0.08163,-2.24526 0.0017,-5.20048 -0.177621,-6.56715 l -0.326023,-2.48488 -0.449658,1.17247 -0.44966,1.17245 -0.440556,-0.84918 c -0.520502,-1.00326 -0.925856,-4.57291 -0.488593,-4.30267 0.165946,0.10251 0.303902,0.53647 0.306568,0.96424 0.0072,1.15684 0.390136,2.37517 0.74652,2.37517 0.172468,0 0.31358,-0.20834 0.31358,-0.46298 0,-0.60945 2.027832,-3.79679 2.415571,-3.79679 0.165727,0 0.226486,0.50987 0.135021,1.13306 l -0.166294,1.13306 2.09143,-1.7725 c 1.150285,-0.97487 2.780635,-2.23245 3.622991,-2.79462 2.462358,-1.6433 4.408208,-3.49952 6.091146,-5.81056 1.687679,-2.31755 2.483058,-2.7243 0.985464,-0.50397 -1.014441,1.50402 -3.634567,4.25079 -5.874383,6.15832 -1.761412,1.50012 -2.049518,2.54801 -0.372162,1.35363 l 1.119189,-0.79693 -0.249062,0.99235 c -0.208187,0.82947 0.369961,0.41738 3.522524,-2.51082 6.285623,-5.83828 7.949855,-9.01748 8.019456,-15.31963 0.0478,-4.3275 0.556522,-3.46188 0.625967,1.06512 0.04672,3.04529 -0.652349,5.31349 -2.465731,8.00042 -0.573149,0.84925 -1.042087,1.62897 -1.042087,1.73273 0,0.10371 0.577094,-0.16802 1.282428,-0.60393 l 1.282427,-0.79259 -0.26094,1.18805 -0.26094,1.18805 1.90711,-1.5751 c 1.048911,-0.8663 1.684668,-1.29304 1.412799,-0.9483 -0.835932,1.05994 -0.306438,0.94883 1.91596,-0.40206 6.725348,-4.08802 8.105432,-5.72384 9.62849,-11.41268 0.444302,-1.65954 0.815457,-2.66544 0.824783,-2.23535 0.02094,0.96533 0.7354,2.59033 1.138886,2.59033 0.163899,0 0.298001,-0.83295 0.298001,-1.85098 0,-1.621302 0.06408,-1.786492 0.516441,-1.33118 0.410976,0.41365 0.445288,0.846 0.168023,2.11721 -0.577001,2.64544 -0.677517,2.77899 -1.261164,1.67563 -0.624018,-1.17967 -1.05547,-1.01012 -1.392124,0.54708 -0.693964,3.20991 -3.00281,6.12316 -6.678495,8.42674 -1.090361,0.68334 -2.90541,1.83187 -4.033445,2.55227 -1.169172,0.74668 -2.109078,1.14468 -2.186127,0.92571 -0.07433,-0.21126 -0.667364,0.23765 -1.31785,0.99755 l -1.1827,1.38167 -0.01328,-1.15369 c -0.0074,-0.63453 -0.176245,-1.1537 -0.375364,-1.1537 -0.822467,0 -3.234234,1.90086 -6.915087,5.45017 -2.147639,2.07088 -3.963355,3.76842 -4.034926,3.7723 -0.07156,0.004 -0.05379,-0.39229 0.03952,-0.8804 0.203799,-1.0661 -0.265154,-1.16078 -0.879225,-0.17749 -0.648456,1.03834 -1.086191,0.867 -0.906843,-0.35497 0.08596,-0.58572 0.04367,-1.06495 -0.09398,-1.06495 -0.137659,0 -1.387924,1.05327 -2.778374,2.34061 -2.445574,2.26423 -2.528082,2.30826 -2.528082,1.34894 0,-0.68369 -0.114149,-0.87755 -0.367519,-0.62417 -0.253372,0.25337 -0.2394,1.67961 0.04499,4.59203 0.566231,5.79891 0.300872,8.91455 -1.056457,12.40416 -1.513617,3.89139 -1.440547,5.14022 0.420287,7.18325 1.019692,1.11953 1.356665,0.99393 0.725859,-0.27054 -0.293375,-0.58808 -0.461657,-1.26699 -0.373959,-1.50868 0.0877,-0.24167 0.439059,0.24415 0.7808,1.07961 0.728149,1.78015 1.381243,2.20828 3.368569,2.20828 h 1.45935 l -0.19383,-1.33118 -0.193834,-1.33118 0.56714,1.24244 c 0.311929,0.68334 0.604437,1.28191 0.65002,1.33014 0.226759,0.23998 3.392634,-1.09591 3.833298,-1.61752 0.278823,-0.33004 0.806392,-1.6384 1.172382,-2.90745 0.365987,-1.26907 1.360482,-3.97969 2.209992,-6.02362 1.659892,-3.99377 5.411945,-16.98785 5.411945,-18.74268 0,-0.58621 0.233361,-1.60334 0.518578,-2.26029 l 0.518578,-1.19444 0.0064,1.06495 c 0.0036,0.58571 -0.202715,2.06332 -0.458423,3.28358 -0.255703,1.22024 -0.367789,2.21863 -0.249076,2.21863 0.118711,0 0.577125,-0.25305 1.018701,-0.56235 0.441576,-0.30929 2.034601,-1.01566 3.540056,-1.56972 5.386005,-1.98222 5.362643,-1.9674 5.158941,-3.27373 -0.306282,-1.96417 0.374062,-0.71708 0.831079,1.5234 0.236797,1.16089 0.927017,3.08769 1.533814,4.28178 0.606799,1.19411 1.027771,2.2466 0.935499,2.33887 -0.278974,0.27897 -2.327793,-3.54254 -2.564466,-4.78332 -0.247432,-1.29715 -0.547215,-1.59877 -1.301415,-1.30936 -0.385738,0.14803 -0.577786,1.19636 -0.764315,4.1722 -0.173171,2.76272 -0.431721,4.26569 -0.848026,4.92961 -0.329394,0.52531 -2.036575,3.06457 -3.793734,5.64279 -3.602437,5.28572 -4.237297,5.75362 -7.567685,5.5775 l -2.005432,-0.10599 -0.834207,2.48487 c -1.848435,5.50599 -1.827171,5.466 -3.378675,6.35509 -1.627033,0.93237 -4.557018,1.34448 -6.80293,0.95686 z m 16.781858,-10.9505 c 0.38987,-0.34168 2.244595,-2.91294 4.121613,-5.71391 2.90272,-4.33158 3.416513,-5.31304 3.43784,-6.56715 0.0138,-0.81097 0.07287,-2.47286 0.131268,-3.69311 0.0584,-1.22024 0.06719,-2.21863 0.01952,-2.21863 -0.04766,0 -1.488058,0.56496 -3.200883,1.25549 -4.789499,1.93085 -4.956195,2.10059 -5.830802,5.93698 -0.722846,3.17067 -2.145423,7.54054 -3.349947,10.29036 l -0.583111,1.33119 h 2.272819 c 1.657896,0 2.464598,-0.16809 2.981668,-0.62122 z m 14.811499,5.56269 c -5.392471,-0.65988 -6.569001,-1.37758 -6.564819,-4.0046 0.0025,-1.48125 0.545744,-2.57257 2.069716,-4.15677 1.81168,-1.88326 3.501936,-6.8 3.078297,-8.95435 -0.166796,-0.84823 -0.12931,-1.00213 0.147396,-0.60508 1.127609,1.618 -0.576135,7.16156 -3.050112,9.92431 -1.923145,2.14761 -2.23611,3.6603 -1.104664,5.33925 1.235705,1.83365 1.908687,1.80372 1.765569,-0.0785 -0.07794,-1.02497 0.07456,-1.74891 0.469385,-2.2282 l 0.584828,-0.70997 -0.256672,0.70997 c -0.659826,1.82508 -0.587211,2.61867 0.322869,3.52875 0.675267,0.67527 1.277214,0.90852 2.344582,0.90852 1.435166,0 1.436061,-7.2e-4 1.436061,-1.39898 0,-0.76943 0.144843,-1.4885 0.321875,-1.59791 0.177033,-0.10934 0.247476,0.0856 0.156544,0.43332 -0.09094,0.34773 -1.2e-4,1.06678 0.201806,1.5979 0.722083,1.89922 3.669977,0.88879 4.656031,-1.59592 0.254437,-0.64115 1.257925,-2.92288 2.229986,-5.07051 0.972048,-2.14764 2.148807,-4.86325 2.615008,-6.0347 0.466187,-1.17142 0.754001,-1.65065 0.63957,-1.06494 -0.188705,0.96582 -4.002286,10.07136 -5.386689,12.86159 -1.068516,2.15356 -2.684717,2.68535 -6.676567,2.19687 z M 27.1638,145.79372 c 0.01704,-0.41353 0.101148,-0.49765 0.214466,-0.21446 0.102543,0.25624 0.08993,0.56242 -0.02801,0.68038 -0.117959,0.11793 -0.201856,-0.0918 -0.186443,-0.46592 z m -4.076431,-9.72956 c -0.129296,-0.97465 -1.168325,-4.76851 -2.308966,-8.43081 -1.140641,-3.66231 -2.188167,-7.29668 -2.327838,-8.07639 -0.173092,-0.96629 -0.743413,-1.94094 -1.791277,-3.06119 -0.845533,-0.90395 -2.023923,-2.60747 -2.618648,-3.78561 -0.884031,-1.75126 -1.564467,-2.49492 -3.729456,-4.07599 -2.5237307,-1.84307 -5.5392486,-4.89586 -5.5392486,-5.60772 0,-0.18336 -0.159741,-0.3334 -0.3549811,-0.3334 -0.19524,0 -0.354981,0.23962 -0.354981,0.53248 0,0.73551 -0.6207738,0.67055 -0.8481306,-0.0887 C 3.1115409,102.79518 2.8448721,101.43802 2.6212545,100.12092 2.3976383,98.803838 2.0712239,97.814869 1.8958901,97.923235 1.4088049,98.224277 1.5380204,97.673699 2.2760421,96.303446 l 0.669181,-1.242434 0.00617,2.699479 c 0.00671,2.923579 0.2936229,4.577649 0.794071,4.577649 0.1740753,0 0.3193935,-0.35942 0.3229301,-0.79871 0.0047,-0.58045 0.3000601,-0.26594 1.0810056,1.15103 1.3417483,2.4345 2.3932079,3.54542 5.2542632,5.55138 l 2.259412,1.58414 -0.146987,-1.25905 c -0.08085,-0.69248 -0.04036,-1.25905 0.08997,-1.25905 0.130329,0 0.32154,0.63059 0.424915,1.4013 0.34167,2.54734 2.360628,5.91881 4.875267,8.1412 2.280494,2.01548 5.402007,4.30179 5.873238,4.30179 0.13371,0 -0.01857,-0.39936 -0.33838,-0.88746 -0.63547,-0.96984 -0.225302,-1.22871 0.521362,-0.32903 0.254895,0.30712 1.033227,0.85223 1.729626,1.21132 1.674634,0.86354 3.143309,2.46591 5.132502,5.59975 1.659825,2.61494 1.919527,3.27995 1.280914,3.27995 -0.19524,0 -0.354981,-0.15733 -0.354981,-0.34965 0,-0.50705 -2.057182,-3.84601 -3.42286,-5.55555 -1.363806,-1.7072 -3.676771,-3.24581 -3.676771,-2.44584 0,0.27476 0.159741,0.59827 0.354981,0.71894 0.19524,0.12062 0.354983,0.39446 0.354983,0.60845 0,0.22384 -0.263791,0.15893 -0.621218,-0.15287 -0.341671,-0.29805 -1.799781,-1.3753 -3.240248,-2.39389 l -2.619028,-1.85197 0.224483,1.19661 c 0.123459,0.65812 1.098941,4.08959 2.16772,7.62547 1.733173,5.73388 2.735086,10.4099 2.230497,10.4099 -0.09935,0 -0.286412,-0.79744 -0.415704,-1.77207 z m 58.416635,-6.03752 c 0,-0.4881 0.0805,-0.68778 0.179045,-0.44373 0.09848,0.24405 0.09848,0.6434 0,0.88745 -0.09848,0.24405 -0.179045,0.0444 -0.179045,-0.44372 z m 0.335054,-1.95241 c -0.01368,-0.58571 0.137064,-2.98184 0.334999,-5.32472 1.023904,-12.11913 0.211768,-17.0321 -3.796904,-22.968902 -2.600785,-3.851741 -6.362898,-6.84605 -5.595367,-4.453423 0.615109,1.917477 0.840181,3.443643 0.848101,5.750705 0.0082,2.40222 -0.32708,2.76522 -0.877117,0.94949 -0.190334,-0.62831 -0.142064,-0.7731 0.18944,-0.56822 0.62471,0.38609 0.165009,-3.45992 -0.721557,-6.036771 -0.370669,-1.077368 -0.536122,-1.958854 -0.367665,-1.958854 0.168452,0 0.377593,0.19968 0.464752,0.443728 0.08717,0.244049 0.285859,0.324897 0.441551,0.179662 0.155691,-0.145235 -0.007,-0.584522 -0.361399,-0.976193 -0.744553,-0.822721 -0.363846,-0.919079 1.509044,-0.381945 0.633241,0.181608 1.151346,0.287492 1.151346,0.235274 0,-0.05219 -0.620998,-0.747735 -1.379997,-1.545608 -0.759,-0.797874 -2.191819,-2.620978 -3.184046,-4.051325 -2.483494,-3.580105 -5.242723,-5.617983 -7.606591,-5.617983 -0.70521,0 -0.931908,0.315264 -1.46775,2.041138 -1.625697,5.236173 -4.031592,7.77798 -9.359694,9.888441 l -0.811737,0.32153 0.927997,1.240313 c 1.172117,1.566592 2.397985,3.915901 2.164925,4.148961 -0.09762,0.0977 -0.493506,-0.43702 -0.879747,-1.188086 C 53.075401,97.450366 52.26189,96.153287 51.653845,95.319041 50.774123,94.112055 50.423079,93.86755 49.935213,94.122037 49.07499,94.570742 42.96526,95.240621 39.854606,95.227285 33.980383,95.202065 26.908019,93.24196 23.222489,90.617628 l -1.064837,-0.758227 -1.859465,1.305786 c -1.022702,0.718178 -1.454881,0.930067 -0.960392,0.470883 0.494489,-0.459197 1.287976,-1.09053 1.763307,-1.402963 l 0.864235,-0.568073 -1.585813,-0.992562 c -1.982216,-1.240662 -6.477231,-5.753921 -7.283488,-7.313053 -0.618744,-1.196522 -0.919656,-4.580355 -0.407293,-4.580141 0.156586,6.7e-5 0.454602,-0.487251 0.662259,-1.082949 0.595603,-1.70854 0.680107,-1.021234 0.108112,0.879339 -0.7731,2.568814 -0.372985,4.179895 1.6383,6.596686 3.0003,3.605234 8.874179,7.795609 13.313778,9.497923 5.716505,2.191955 15.202766,2.52674 22.250484,0.785262 4.844837,-1.197152 7.291679,-3.166028 9.241001,-7.435856 1.006794,-2.20529 2.994857,-8.58138 3.987951,-12.790095 0.253382,-1.073826 0.804313,-3.269591 1.224295,-4.879505 0.960335,-3.6812 0.873362,-4.458761 -0.528603,-4.725751 -1.05016,-0.199989 -1.045229,-0.206147 0.354982,-0.443312 0.780959,-0.132288 3.496568,-0.407289 6.034687,-0.611128 6.962802,-0.559178 11.834258,-1.498248 14.909218,-2.874029 4.148971,-1.856324 15.055263,-11.629422 20.351723,-18.237123 1.09548,-1.366685 2.99474,-3.566126 4.22058,-4.88765 2.30852,-2.48873 2.6687,-3.287408 1.60758,-3.564703 -0.46748,-0.122226 -0.42355,-0.172538 0.1775,-0.203517 1.14264,-0.0589 1.00978,0.910613 -0.36387,2.65515 -8.12744,10.321852 -15.911309,18.191829 -22.250597,22.496755 -4.424954,3.004935 -7.190644,3.822839 -16.311482,4.823907 -2.849278,0.312728 -5.524085,0.704829 -5.944017,0.871342 -0.551433,0.218651 -0.829376,0.728376 -1.000636,1.835059 -0.130423,0.842779 -0.458456,2.251162 -0.72897,3.129737 -0.644443,2.093033 -3.059929,11.389479 -3.1312,12.051013 -0.03684,0.341963 0.451938,0.603574 1.459763,0.781304 1.843153,0.325044 4.456318,2.136114 5.485938,3.80207 0.675963,1.093736 0.788456,1.154125 1.025179,0.550403 0.146245,-0.372982 0.279523,-1.157371 0.296176,-1.743087 0.04889,-1.719663 1.645612,-6.410128 3.016807,-8.862057 1.978224,-3.5374 4.501965,-6.061563 7.622712,-7.623996 3.68501,-1.844921 8.110447,-3.248165 15.696838,-4.977233 8.989249,-2.048812 13.188769,-4.011369 16.856899,-7.877732 1.72269,-1.815792 4.02933,-5.209192 4.06141,-5.974906 0.0121,-0.29966 0.20118,-0.144779 0.42658,0.350241 0.37336,0.819971 0.41888,0.739028 0.59872,-1.064488 l 0.19463,-1.951931 1.12061,2.48441 c 3.84329,8.520589 4.36459,19.876072 1.51107,32.914871 -2.5382,11.597867 -4.52983,15.647004 -10.58347,21.517048 -3.5007,3.39453 -5.92274,4.85765 -10.68474,6.45455 -2.961422,0.99308 -3.98189,1.15327 -8.375097,1.31464 -3.856783,0.14167 -5.422705,0.0606 -6.836002,-0.35363 -2.051738,-0.60146 -2.404984,-0.40021 -2.229763,1.27027 0.160221,1.52741 -0.707016,15.46081 -1.028505,16.52429 l -0.283627,0.93831 -0.02482,-1.06495 z m 16.388746,-18.47174 c 5.831156,-1.47912 8.802276,-3.15249 12.973186,-7.30663 3.39893,-3.385252 6.47504,-8.07925 7.75155,-11.828445 0.90181,-2.648723 2.56535,-9.433953 3.53727,-14.427835 0.40696,-2.091022 0.59411,-5.117906 0.62367,-10.087115 0.0412,-6.928358 0.0153,-7.198113 -1.07661,-11.181925 -1.1908,-4.344893 -2.32044,-7.267155 -2.47001,-6.389667 -0.0499,0.292858 -0.2013,1.331184 -0.33641,2.307377 l -0.24566,1.774912 -0.43076,-1.242433 -0.43076,-1.242433 -0.62586,1.20814 c -0.99731,1.925192 -5.49672,6.172211 -8.19322,7.733625 -3.00229,1.738486 -6.57686,2.937274 -13.027941,4.36915 -13.60736,3.02027 -19.223881,6.464291 -22.785984,13.972234 -1.256671,2.648697 -2.33678,6.759685 -2.33678,8.893948 0,1.305477 0.581016,2.151838 3.882139,5.65508 l 1.620082,1.719273 -1.626709,-0.121823 -1.626703,-0.121823 2.711455,2.662355 c 2.264262,2.223269 3.017257,3.279563 4.565643,6.404645 1.019811,2.05824 1.949462,4.32933 2.065905,5.04685 0.257841,1.58893 1.197716,2.27361 3.75085,2.73243 2.525639,0.45388 9.007599,0.16113 11.731657,-0.52984 z m -75.651839,7.81154 c -1.121989,-1.42639 -2.18686,-4.61155 -2.353222,-7.0388 -0.08218,-1.19897 -0.07772,-1.78061 0.0099,-1.29251 0.67224,3.74445 1.081401,5.05136 2.153957,6.87998 1.305143,2.22516 1.405979,2.99801 0.189354,1.45133 z m 25.597365,-4.33776 c 0.824121,-1.81961 1.047454,-5.56987 0.512635,-8.60831 -0.237248,-1.34786 -0.21208,-1.48651 0.161105,-0.88746 0.243255,0.39048 0.508004,2.17293 0.588332,3.96101 0.130825,2.91213 0.05132,3.45797 -0.762688,5.23599 -0.499803,1.09171 -0.988457,1.98493 -1.085903,1.98493 -0.09744,0 0.16649,-0.75877 0.586519,-1.68616 z m -28.054831,-6.12344 c 0,-0.68334 0.07305,-0.96289 0.162344,-0.62122 0.08929,0.34168 0.08929,0.90077 0,1.24245 -0.08929,0.34166 -0.162344,0.0621 -0.162344,-0.62123 z m -7.576649,-0.44372 c -0.02183,-0.24406 -0.10194,-0.98976 -0.178024,-1.65711 -0.07609,-0.66737 -0.03754,-1.11259 0.08566,-0.98938 0.267136,0.26713 0.540768,3.09021 0.299525,3.09021 -0.09212,0 -0.185347,-0.19967 -0.207172,-0.44372 z m 0.0677,-4.37811 c 0.01704,-0.41353 0.101148,-0.49765 0.214469,-0.21447 0.102543,0.25625 0.08993,0.56243 -0.02803,0.68039 -0.117959,0.11793 -0.201858,-0.0918 -0.186445,-0.46592 z m 0.358313,-1.21285 c -0.02622,-0.56531 1.976586,-4.259781 2.309257,-4.259781 0.108004,0 -0.275025,0.838646 -0.851164,1.86365 -0.576138,1.024999 -1.134346,2.103271 -1.240464,2.396131 -0.171498,0.4733 -0.195678,0.4733 -0.217629,0 z m 8.854055,-0.17749 c 0,-0.19524 0.154847,-0.5946 0.344109,-0.887462 0.189263,-0.29285 0.344109,-0.37272 0.344109,-0.17748 0,0.19523 -0.154846,0.594582 -0.344109,0.887442 -0.189262,0.29287 -0.344109,0.37274 -0.344109,0.1775 z M 0.70820354,99.474688 c -0.1321537,-0.50104 -0.1792501,-1.69909 -0.1046631,-2.66235 l 0.1356193,-1.751393 0.063984,1.884607 c 0.039109,1.151911 0.20199396,1.799303 0.41896626,1.665218 0.4146596,-0.256285 0.4195392,0.07419 0.015724,1.064948 -0.27057576,0.663862 -0.30495316,0.650822 -0.52963596,-0.20103 z M 22.826247,98.541781 c 0.452563,-0.862863 1.114688,-1.394161 1.114688,-0.894432 0,0.176495 -0.342728,0.625214 -0.761616,0.997137 -0.756328,0.671542 -0.75878,0.670832 -0.353072,-0.102772 z M 1.0607602,92.398591 c 0.107172,-1.073827 0.6665446,-2.968724 1.2430516,-4.210888 1.2350419,-2.661094 1.2127247,-2.527397 0.4269747,-2.557786 -0.4408837,-0.01704 -0.3635986,-0.130678 0.2662368,-0.391484 0.4880995,-0.202108 1.1844975,-0.52306 1.5475513,-0.713227 0.5209716,-0.272895 0.4701816,-0.09673 -0.24098,0.8356 -1.1742914,1.539571 -2.3141115,4.201081 -2.9379939,6.860296 L 0.86590254,94.350991 Z M 35.832822,86.211487 c -1.588294,-0.564008 -3.278244,-0.887818 -4.683712,-0.897464 -1.868669,-0.01342 -2.348391,-0.154399 -3.194834,-0.943001 -0.930892,-0.867278 -0.937985,-0.894098 -0.10854,-0.410361 0.488099,0.284647 2.041545,0.623081 3.452103,0.752069 1.410555,0.128933 3.327456,0.533767 4.259778,0.899504 2.710983,1.063455 4.526903,1.251221 5.827249,0.602527 1.258951,-0.628046 1.681463,-0.551182 0.834425,0.151796 -1.030623,0.855336 -3.725352,0.789904 -6.386469,-0.15507 z M 0.86713954,85.653933 c 0,-0.195239 0.15937076,-0.354977 0.35415726,-0.354977 0.1947866,0 1.8321381,-1.487247 3.6385604,-3.305011 C 6.9000831,79.940933 8.7815368,78.394506 9.8265548,77.911668 12.116673,76.853539 12.451745,76.957934 10.32191,78.066 8.8213208,78.846686 2.6248824,84.315987 1.8256997,85.565195 1.486078,86.096051 0.86713954,86.153353 0.86713954,85.653875 Z M 48.8791,82.896226 c -1.647952,-0.903475 -2.265542,-1.972633 -2.469614,-4.275368 -0.42672,-4.815079 3.315166,-12.62016 6.424438,-13.400538 0.776299,-0.194837 1.182288,-0.04213 2.019175,0.759703 1.397391,1.338791 1.843618,3.136833 1.887242,7.604542 0.03362,3.442183 -0.04191,3.881846 -0.987246,5.747481 -0.563002,1.111098 -1.441709,2.420721 -1.95268,2.910267 -1.251814,1.199312 -3.404713,1.485368 -4.921315,0.653913 z m 2.923692,-0.437127 c 0.68689,0 0.243397,-1.336443 -0.651502,-1.963255 -1.118279,-0.783276 -2.332825,-0.658031 -2.687181,0.277094 -0.177836,0.4693 -0.162486,0.97292 0.03722,1.221127 0.379813,0.472051 1.636068,0.787744 2.358498,0.592693 0.260017,-0.07017 0.684351,-0.127592 0.942966,-0.127592 z m 1.237605,-11.705361 c 1.365616,-1.365611 1.384682,-4.268808 0.02803,-4.268808 -1.550333,0 -2.847009,3.41967 -1.722913,4.543768 0.586006,0.586012 0.881925,0.537994 1.69488,-0.27496 z m -19.248719,10.25701 c -0.341669,-0.199009 -0.621218,-0.593512 -0.621218,-0.87667 0,-0.600984 0.97681,-0.665719 2.322854,-0.153969 0.787414,0.299379 0.874675,0.450598 0.512118,0.887456 -0.504461,0.607841 -1.32488,0.660903 -2.213754,0.143183 z M 20.800976,76.593606 c -3.15885,-2.657995 -2.074449,-12.129233 1.805027,-15.765232 1.756489,-1.646246 3.430582,-1.448083 4.168755,0.49345 1.499349,3.943589 0.0605,14.643535 -2.126567,15.814015 -1.155035,0.618144 -2.732378,0.395844 -3.847215,-0.542233 z m 2.252511,-0.524174 c 0.500506,-1.57695 -0.710969,-2.814057 -2.270917,-2.318943 -0.882324,0.280032 -0.601601,1.392149 0.587523,2.327516 1.120044,0.881016 1.401502,0.879594 1.683394,-0.008 z m 1.399798,-11.438397 c 0.721895,-1.030639 0.726105,-3.071549 0.007,-3.347529 -1.159945,-0.44511 -2.597151,1.912647 -2.107086,3.456713 0.291423,0.918194 1.421741,0.859429 2.100182,-0.109211 z M 14.27846,70.107808 c 0.12299,-4.933668 0.961947,-10.946409 1.855754,-13.29998 l 0.641818,-1.690012 -3.095588,-3.102232 C 5.817976,44.136242 2.1038156,35.905317 0.82744514,23.53217 0.63611204,21.677389 0.35258924,19.920227 0.19739244,19.627369 -0.30158656,18.68579 0.13937894,14.693647 1.5893846,7.025523 1.9954911,4.8778836 2.4724293,2.6415067 2.6492456,2.0557906 3.1671931,0.34004579 2.6702427,4.3540315 1.8581733,8.445458 0.74858354,14.035857 0.63160004,20.657578 1.5477394,26.017037 c 1.1399046,6.668491 1.7862814,9.115617 3.2575189,12.332615 2.3568689,5.15354 7.1901177,11.768191 10.7323317,14.687983 1.314436,1.083473 1.350225,1.091067 2.079117,0.441474 l 0.741655,-0.66097 -0.608963,1.190068 c -1.609931,3.146212 -2.571707,7.793409 -2.876032,13.896658 -0.3157,6.331413 -0.736676,7.890291 -0.594907,2.202943 z m 34.346811,-5.900444 c 0.309071,-0.471715 0.831647,-0.96114 1.161276,-1.087632 0.351662,-0.134944 0.168729,0.219456 -0.442695,0.857645 -1.255271,1.310227 -1.471789,1.379524 -0.718581,0.229987 z M 29.174046,60.977178 c -0.117503,-0.582671 -0.321794,-1.338952 -0.453975,-1.68062 -0.136355,-0.352455 -0.07728,-0.621217 0.136547,-0.621217 0.414271,0 0.9263,2.175533 0.683482,2.904002 -0.08383,0.251481 -0.248551,-0.01945 -0.366054,-0.602165 z m 34.524827,-0.49121 c 0,-0.183043 0.559096,-0.678331 1.242436,-1.100659 0.683339,-0.422329 1.242434,-0.855136 1.242434,-0.961784 0,-0.106662 -0.638966,-0.09177 -1.419925,0.03314 -0.780959,0.124909 -1.419926,0.132288 -1.419926,0.01637 0,-0.11592 0.581662,-0.920528 1.292583,-1.788114 0.710922,-0.867586 1.198027,-1.671993 1.082456,-1.787551 -0.115571,-0.115517 -1.256329,0.279442 -2.535019,0.87781 -1.27869,0.598368 -2.324892,0.944825 -2.324892,0.769886 0,-0.174926 1.365114,-1.75256 3.033584,-3.505831 3.455853,-3.631505 8.218302,-7.358683 11.34317,-8.877365 4.386079,-2.131633 14.177804,-4.829662 23.961261,-6.602361 2.974685,-0.538986 9.134985,-1.020723 7.911535,-0.618681 -0.43203,0.141975 -1.69194,1.376318 -2.79979,2.743003 -3.30519,4.077365 -12.174257,12.677663 -15.11989,14.661687 -4.528383,3.050082 -8.260794,4.164842 -18.035405,5.386654 -3.221458,0.402673 -6.216614,0.811893 -6.655903,0.909352 -0.43929,0.09754 -0.798709,0.0275 -0.798709,-0.155566 z m -3.955818,-7.363177 1.065612,-1.292772 -1.940603,-2.700767 C 57.80073,47.64383 56.578075,45.741152 56.151053,44.901097 55.450941,43.5238 55.330165,43.434539 54.922,43.992738 c -0.248954,0.340473 -0.452647,0.459291 -0.452647,0.264052 0,-0.195239 0.221068,-0.657307 0.491259,-1.026814 0.45645,-0.624236 0.567875,-0.522122 1.572387,1.440824 0.594615,1.16196 1.736917,2.895563 2.538448,3.852436 0.801528,0.956874 1.593558,1.983219 1.760067,2.280746 0.242551,0.433424 0.92817,-0.03126 3.448701,-2.337686 4.124936,-3.774432 5.726577,-4.958596 9.358142,-6.918872 5.427914,-2.92991 17.677564,-5.914934 28.043543,-6.833705 1.4643,-0.129738 3.92231,-0.542219 5.46224,-0.916516 3.56769,-0.867157 5.03883,-0.842457 1.99237,0.03354 -1.26905,0.364892 -4.38402,0.914557 -6.92214,1.221489 -2.538105,0.306932 -5.253726,0.636029 -6.034681,0.731327 -3.803371,0.464121 -17.517124,3.856381 -20.350227,5.033877 -2.678389,1.113191 -7.126723,4.395568 -11.686862,8.62359 -2.586928,2.39853 -4.703505,4.499023 -4.703505,4.667777 0,0.168768 -0.171371,0.306839 -0.380824,0.306839 -0.209458,0 0.09871,-0.581745 0.684784,-1.292773 z M 15.881343,50.202072 C 13.969367,48.133537 11.520654,44.948028 9.1044108,41.386022 4.8899118,35.173038 3.0326015,28.432311 2.8156963,18.562425 2.7063776,13.587889 3.2667391,7.926664 3.9977519,6.6204214 4.2658308,6.1413808 4.4576939,6.2397515 5.2237845,7.2489903 6.5400292,8.9829819 13.006666,19.789469 14.486547,22.728112 c 1.833363,3.640574 4.008707,10.211219 4.826464,14.578384 0.823802,4.399472 1.567669,11.41312 1.244721,11.736071 -0.121676,0.121689 -0.693585,-0.336851 -1.270909,-1.018939 l -1.049672,-1.240165 0.213992,1.774898 0.213994,1.774912 -0.710143,-0.882143 c -0.989267,-1.228882 -1.256106,-0.730602 -0.551632,1.030048 0.325472,0.813437 0.531834,1.533104 0.458583,1.599275 -0.07325,0.06614 -0.964519,-0.779103 -1.980602,-1.878381 z m 6.284689,-2.433239 c 0,-0.20129 0.232833,-0.559205 0.517408,-0.795378 0.307783,-0.255439 0.45405,-0.812363 0.361027,-1.374654 -0.08601,-0.51988 -0.408807,-2.862128 -0.717334,-5.205006 C 21.496108,34.083084 19.465755,26.954899 16.909629,21.373959 14.458113,16.02141 3.870027,0.05867239 3.2093964,0.71930689 3.0925913,0.83616569 2.9970287,0.75472679 2.9970287,0.53847769 c 0,-0.99195813 0.6967414,-0.6050093 1.9649626,1.09129481 2.6353658,3.5248961 9.2881367,13.5751555 10.7386247,16.2226845 3.691509,6.738017 5.832261,13.830514 7.310241,24.219476 0.471841,3.316643 0.698405,3.842763 1.366934,3.174226 0.321961,-0.321959 0.328003,-0.682048 0.02491,-1.485006 -0.331343,-0.877823 -0.310295,-1.05998 0.122494,-1.05998 0.287425,0 0.424956,0.157967 0.305624,0.351046 -0.119327,0.193078 0.0519,0.91763 0.380505,1.610115 0.328603,0.692486 0.496679,1.359842 0.373501,1.48302 -0.123178,0.123165 -0.223961,0.03757 -0.223961,-0.19018 0,-0.737915 -0.64873,-0.442011 -1.93531,0.882733 -0.692739,0.713295 -1.259525,1.132202 -1.259526,0.930926 z m 30.226661,-4.360792 c -1.313893,-2.078007 -1.828137,-2.35333 -1.828137,-0.97877 0,0.513186 -0.169979,0.620774 -0.709962,0.44939 -0.83485,-0.264965 -0.938945,0.255506 -0.177492,0.887456 0.29286,0.243056 0.52592,0.622035 0.517914,0.842175 -0.02002,0.550605 -2.567585,-2.314904 -3.853654,-4.334629 -1.342125,-2.107752 -3.32946,-4.622537 -3.675145,-4.650551 -0.14643,-0.01207 -0.278848,0.257975 -0.294263,0.599642 -0.0154,0.341668 -0.09985,0.447794 -0.187629,0.235824 -0.08779,-0.211969 -0.02371,-0.752753 0.14238,-1.20174 0.292838,-0.791621 0.340097,-0.769202 1.56063,0.740383 0.692256,0.856195 1.46562,1.956077 1.718584,2.444173 1.166483,2.250733 2.638829,3.786467 3.630183,3.786467 0.771098,0 1.037894,-0.20251 1.208129,-0.91704 0.388048,-1.628738 0.546232,-1.563372 1.766836,0.730173 0.660813,1.241682 1.439259,2.434943 1.729882,2.651702 0.612368,0.456756 0.688256,0.848333 0.164403,0.848333 -0.200203,0 -0.970899,-0.959852 -1.712659,-2.132988 z m -26.276866,0.220851 -0.842456,-0.467059 0.797402,-0.208522 c 0.758506,-0.198351 0.785197,-0.322455 0.547253,-2.544355 l -0.250147,-2.335848 1.715127,1.059538 c 0.943322,0.582737 2.154419,1.308671 2.69133,1.613174 l 0.976199,0.553651 0.06396,-2.405239 0.06396,-2.405238 0.202283,2.662368 c 0.111251,1.46429 0.185684,2.705583 0.165397,2.758404 -0.02027,0.05286 -1.135942,-0.546204 -2.479238,-1.331184 -1.343293,-0.784966 -2.577386,-1.42722 -2.742427,-1.42722 -0.165038,0 -0.203874,0.439287 -0.0863,0.976194 0.11757,0.536906 0.235768,1.568457 0.262647,2.29231 0.03244,0.873436 0.238672,1.367047 0.613138,1.467497 0.400527,0.107468 0.358248,0.159672 -0.145695,0.179971 -0.390479,0.0157 -1.089069,-0.181567 -1.552419,-0.438442 z m 14.154264,-2.607293 c -0.683339,-0.47417 -1.480716,-0.99711 -1.771951,-1.162081 -0.291233,-0.164957 -0.415388,-0.414064 -0.275898,-0.553556 0.13949,-0.139479 0.830575,0.186451 1.535742,0.72431 0.717344,0.547143 1.415397,0.842604 1.58467,0.670724 0.166398,-0.168969 0.364591,-1.026037 0.440426,-1.904625 0.118911,-1.377592 0.146418,-1.294986 0.199901,0.600274 0.03412,1.208717 -0.05779,2.262807 -0.204219,2.342381 -0.146429,0.07956 -0.825331,-0.243243 -1.508671,-0.717427 z m -3.194834,-0.840095 c -0.488099,-0.396622 -1.541567,-1.327951 -2.34104,-2.069608 -0.799471,-0.741658 -1.740414,-1.508995 -2.090982,-1.705186 -0.35057,-0.196178 -0.537301,-0.51866 -0.41496,-0.716609 0.124547,-0.201518 0.888555,0.291691 1.736003,1.12065 0.83246,0.814309 2.221218,2.073432 3.08613,2.798037 0.864914,0.724619 1.424009,1.31216 1.242436,1.305666 -0.181572,-0.0067 -0.729487,-0.336315 -1.217587,-0.73295 z"
     id="path241"
     inkscape:export-filename="path241.svg"
     inkscape:export-xdpi="96"
     inkscape:export-ydpi="96" /></svg>
