<?xml version="1.0" encoding="UTF-8" standalone="no"?>
<!-- Created with Inkscape (http://www.inkscape.org/) -->

<svg
   width="1000"
   height="622"
   viewBox="0 0 1000 622"
   version="1.1"
   id="svg5"
   xml:space="preserve"
   sodipodi:docname="eevee.svg"
   inkscape:version="1.2.2 (732a01da63, 2022-12-09)"
   xmlns:inkscape="http://www.inkscape.org/namespaces/inkscape"
   xmlns:sodipodi="http://sodipodi.sourceforge.net/DTD/sodipodi-0.dtd"
   xmlns="http://www.w3.org/2000/svg"
   xmlns:svg="http://www.w3.org/2000/svg"><sodipodi:namedview
     id="namedview7"
     pagecolor="#ffffff"
     bordercolor="#000000"
     borderopacity="0.25"
     inkscape:showpageshadow="2"
     inkscape:pageopacity="0.0"
     inkscape:pagecheckerboard="0"
     inkscape:deskcolor="#d1d1d1"
     inkscape:document-units="mm"
     showgrid="false"
     inkscape:zoom="0.914906"
     inkscape:cx="486.38876"
     inkscape:cy="289.64724"
     inkscape:window-width="3440"
     inkscape:window-height="1369"
     inkscape:window-x="-8"
     inkscape:window-y="73"
     inkscape:window-maximized="1"
     inkscape:current-layer="layer1" /><defs
     id="defs2" /><g
     inkscape:label="Layer 1"
     inkscape:groupmode="layer"
     id="layer1"><path
       style="fill:#000000;fill-opacity:1;fill-rule:nonzero;stroke-width:1.27964;stroke-dasharray:none"
       d="m 407.40285,569.74892 c -6.55761,-1.07359 -11.35501,-4.03451 -15.22852,-9.3986 -2.58056,-3.57172 -3.44341,-4.00251 -6.10627,-3.04208 -4.89565,1.76505 -16.2958,1.30903 -23.35783,-0.9339 -8.65764,-2.74916 -13.14178,-5.89035 -14.78251,-10.35591 -1.16285,-3.1646 -0.79912,-4.70021 2.49561,-10.55649 2.20092,-3.91328 3.85493,-8.76333 3.85493,-11.30569 0,-2.55093 0.54159,-4.13466 1.26904,-3.70829 1.85843,1.09025 0.18584,7.97355 -3.39562,13.93493 -3.82837,6.37967 -3.91068,9.06795 -0.40355,13.29913 3.60535,4.34616 4.78413,4.13545 4.28767,-0.76559 l -0.40886,-4.0444 1.32745,4.0379 c 1.3248,4.02541 4.66998,6.82269 9.93731,8.30756 2.43985,0.68808 2.70269,0.36498 2.17702,-2.67033 l -0.59736,-3.45284 2.72128,4.04414 c 2.1664,3.21897 3.59739,4.04101 7.00363,4.02749 7.39656,-0.0286 10.18686,-1.24868 10.18686,-4.45126 0,-1.61339 1.85843,-7.28782 4.13368,-12.61003 3.60005,-8.434 4.20271,-11.51406 4.6806,-23.987 0.3,-7.87105 0,-18.23061 -0.65577,-23.02161 l -1.20532,-8.71078 -1.66197,4.11021 -1.66197,4.10995 -1.62745,-2.97678 c -1.92215,-3.51683 -3.42217,-16.03035 -1.80533,-15.08318 0.61328,0.35951 1.12301,1.88055 1.13363,3.38026 0.0266,4.05532 1.44162,8.3263 2.75845,8.3263 0.63718,0 1.15753,-0.73047 1.15753,-1.62302 0,-2.13652 7.4948,-13.3098 8.92579,-13.3098 0.61328,0 0.83629,1.78743 0.49912,3.97208 l -0.61328,3.97182 7.72842,-6.21345 c 4.2505,-3.41746 10.27447,-7.82605 13.38602,-9.79661 9.101,-5.7608 16.29048,-12.26794 22.50826,-20.36922 6.23637,-8.12444 9.17534,-9.55027 3.64253,-1.76688 -3.74873,5.27252 -13.43115,14.90134 -21.70648,21.5885 -6.50982,5.25848 -7.57444,8.93191 -1.37524,4.74496 l 4.13368,-2.79364 -0.9186,3.47884 c -0.76992,2.90759 1.36728,1.46303 13.01699,-8.80183 23.22509,-20.46626 29.37385,-31.61118 29.63137,-53.70358 0.18584,-15.17006 2.05755,-12.13579 2.31507,3.7338 0.18585,10.67536 -2.41065,18.62681 -9.11162,28.04595 -2.11861,2.97705 -3.85226,5.71034 -3.85226,6.07401 0,0.36368 2.13453,-0.58895 4.73899,-2.11701 l 4.73901,-2.77856 -0.96373,4.16484 -0.96374,4.16485 7.04612,-5.52174 c 3.87615,-3.03687 6.22575,-4.53268 5.22219,-3.32433 -3.09031,3.71584 -1.13364,3.32615 7.07797,-1.40944 24.85254,-14.33059 29.95261,-20.06512 35.581,-40.00746 1.64073,-5.81776 3.01332,-9.34396 3.04784,-7.83619 0.0796,3.38416 2.71596,9.08044 4.20801,9.08044 0.60532,0 1.10179,-2.91981 1.10179,-6.48867 0,-5.68354 0.23894,-6.26261 1.90622,-4.66639 1.5186,1.45002 1.64604,2.9656 0.62125,7.42206 -2.13189,9.27347 -2.50358,9.74172 -4.65935,5.87396 -2.30712,-4.13545 -3.90006,-3.54103 -5.14521,1.91775 -2.56464,11.25236 -11.09484,21.46494 -24.67732,29.5402 -4.03014,2.39537 -10.73642,6.42182 -14.90462,8.947 -4.31953,2.61753 -7.7948,4.01292 -8.07887,3.24525 -0.27345,-0.74062 -2.46641,0.83297 -4.86909,3.4968 l -4.36997,4.84355 -0.0531,-4.0444 c -0.0265,-2.2242 -0.65045,-4.04414 -1.38586,-4.04414 -3.03987,0 -11.95237,6.66349 -25.55344,19.10573 -7.9355,7.25947 -14.64444,13.21043 -14.90993,13.22396 -0.26549,0.026 -0.21239,-1.3751 0.15929,-3.0863 0.754,-3.73717 -0.97965,-4.06911 -3.2496,-0.62226 -2.39472,3.64014 -4.01156,3.03922 -3.35048,-1.24425 0.31859,-2.05329 0.15929,-3.73327 -0.3478,-3.73327 -0.50708,0 -5.12661,3.69217 -10.2665,8.20507 -9.03729,7.9374 -9.33995,8.09166 -9.33995,4.72883 0,-2.39667 -0.42213,-3.07641 -1.35931,-2.18803 -0.93718,0.88812 -0.88409,5.888 0.1593,16.09746 2.09205,20.32839 1.10974,31.25037 -3.90537,43.48319 -5.59122,13.64148 -5.32308,18.01938 1.55312,25.1813 3.76996,3.92447 5.01511,3.48431 2.68411,-0.94847 -1.08586,-2.06136 -1.7071,-4.44137 -1.38321,-5.28865 0.3239,-0.84728 1.62215,0.85586 2.88588,3.78452 2.68941,6.24049 5.10272,7.74125 12.44618,7.74125 h 5.39477 l -0.71683,-4.6664 -0.71682,-4.66665 2.09471,4.35553 c 1.15223,2.39537 2.23543,4.49366 2.40269,4.66274 0.83895,0.8413 12.53645,-3.84174 14.16391,-5.67027 1.0301,-1.15684 2.98145,-5.74337 4.3328,-10.19202 1.354,-4.44892 5.02838,-13.95106 8.16648,-21.11609 6.13282,-14.00048 19.99938,-59.55152 19.99938,-65.70331 0,-2.05485 0.86284,-5.62059 1.91684,-7.92335 l 1.91418,-4.18721 v 3.73327 c 0,2.05302 -0.74868,7.23293 -1.69383,11.51067 -0.94514,4.27749 -1.3593,7.77741 -0.92124,7.77741 0.44071,0 2.13453,-0.88708 3.76465,-1.97134 1.63276,-1.08426 7.51868,-3.56054 13.08336,-5.50274 19.90115,-6.9486 19.81619,-6.89684 19.0622,-11.47608 -1.13099,-6.88539 1.3832,-2.51374 3.07172,5.34016 0.87346,4.06963 3.42483,10.82416 5.66821,15.01007 2.24074,4.18592 3.79652,7.87549 3.45669,8.1991 -1.03275,0.97787 -8.60189,-12.41856 -9.478,-16.76811 -0.91329,-4.54725 -2.02038,-5.60472 -4.80803,-4.59017 -1.42568,0.51898 -2.13454,4.19398 -2.82482,14.62586 -0.63983,9.68475 -1.59559,14.95363 -3.13278,17.28084 -1.2186,1.84153 -7.52665,10.743 -14.01789,19.78105 -13.31433,18.52925 -15.65861,20.1697 -27.96674,19.55212 l -7.40983,-0.37148 -3.08235,8.71079 c -6.83106,19.30136 -6.75142,19.16139 -12.48335,22.27813 -6.01335,3.2684 -16.84005,4.71297 -25.13927,3.35425 z m 62.01322,-38.38731 c 1.43896,-1.19794 8.29391,-10.21153 15.22852,-20.03052 10.72846,-15.18437 12.62671,-18.62499 12.70371,-23.02135 0.0531,-2.84282 0.2708,-8.66865 0.48585,-12.94639 0.21239,-4.27748 0.23893,-7.77741 0.0796,-7.77741 -0.18584,0 -5.4983,1.98045 -11.82759,4.40131 -17.69758,6.76859 -18.31352,7.36352 -21.54719,20.81225 -2.67083,11.11474 -7.92754,26.4336 -12.37716,36.0731 l -2.15578,4.66665 h 8.40011 c 6.12487,0 9.10632,-0.58922 11.01785,-2.17764 z m 54.73081,19.5001 c -19.92504,-2.31316 -24.27377,-4.82924 -24.25784,-14.03819 0,-5.19266 2.01507,-9.01828 7.64878,-14.57175 6.693,-6.60184 12.93999,-23.83767 11.37359,-31.3898 -0.61593,-2.97366 -0.47788,-3.51319 0.54426,-2.12118 4.16819,5.67183 -2.12923,25.10508 -11.27006,34.79009 -7.10718,7.52845 -8.26206,12.83141 -4.08324,18.71681 4.56643,6.42807 7.05407,6.32297 6.52574,-0.27496 -0.28937,-3.59332 0.27612,-6.13099 1.73366,-7.81123 l 2.16109,-2.48876 -0.9478,2.48876 c -2.43985,6.39789 -2.16905,9.17983 1.19205,12.37018 2.49561,2.36728 4.72042,3.1849 8.66561,3.1849 5.30184,0 5.30449,0 5.30449,-4.90416 0,-2.69739 0.53629,-5.21789 1.18939,-5.6016 0.65577,-0.38318 0.91595,0.3002 0.57877,1.51896 -0.33451,1.21901 0,3.73978 0.74603,5.60159 2.66818,6.65777 13.56124,3.1157 17.20643,-5.59457 0.93983,-2.24761 4.64607,-10.24613 8.23815,-17.77485 3.59209,-7.52871 7.94082,-17.04828 9.66385,-21.15484 1.72304,-4.10657 2.78765,-5.78656 2.36287,-3.73327 -0.69559,3.38572 -14.78781,35.30568 -19.90381,45.08695 -3.94784,7.54926 -9.92137,9.41343 -24.67201,7.70118 z m -155.33569,-4.35994 c 0.0531,-1.44977 0.37169,-1.74451 0.79116,-0.75181 0.37965,0.89826 0.33186,1.97161 -0.10619,2.38497 -0.43541,0.41336 -0.74603,-0.3218 -0.68762,-1.63316 z m -15.06392,-34.10749 c -0.47788,-3.41667 -4.31687,-16.71607 -8.53285,-29.55451 -4.21334,-12.83843 -8.08418,-25.57879 -8.60189,-28.31208 -0.63983,-3.38728 -2.74782,-6.80396 -6.61867,-10.73104 -3.12482,-3.16902 -7.47886,-9.14054 -9.67712,-13.27078 -3.26553,-6.13904 -5.77973,-8.74591 -13.7816,-14.28845 -9.32402,-6.46084 -20.46665,-17.16248 -20.46665,-19.658 0,-0.64281 -0.59204,-1.16881 -1.31417,-1.16881 -0.71948,0 -1.31152,0.83999 -1.31152,1.8665 0,2.57851 -2.29384,2.35089 -3.13279,-0.31087 -0.37699,-1.19768 -1.36462,-5.95512 -2.1903,-10.57235 -0.82567,-4.61697 -2.03099,-8.08385 -2.67879,-7.70404 -1.80002,1.05538 -1.32479,-0.87486 1.40444,-5.67834 l 2.47172,-4.35526 v 9.46311 c 0,10.24874 1.0832,16.047 2.93366,16.047 0.64249,0 1.17878,-1.25986 1.19206,-2.79989 0,-2.03482 1.10975,-0.93208 3.99563,4.03503 4.9567,8.53441 8.84348,12.42871 19.4153,19.46055 l 8.34967,5.55322 -0.54426,-4.41354 c -0.29734,-2.42763 -0.15929,-4.41354 0.33187,-4.41354 0.48319,0 1.18939,2.21042 1.5717,4.91223 1.26107,8.92983 8.72401,20.74851 18.01351,28.53918 8.42931,7.06541 19.96221,15.08006 21.70383,15.08006 0.49381,0 -0.0796,-1.39981 -1.25046,-3.11101 -2.34693,-3.39978 -0.83099,-4.30714 1.92746,-1.1532 0.94249,1.07646 3.81775,2.98744 6.39035,4.24626 6.18858,3.02699 11.6152,8.6442 18.96662,19.63017 6.13283,9.16682 7.0939,11.49793 4.73369,11.49793 -0.72213,0 -1.31152,-0.5515 -1.31152,-1.22578 0,-1.77754 -7.60364,-13.48228 -12.64795,-19.47513 -5.04166,-5.98478 -13.5878,-11.37826 -13.5878,-8.57395 0,0.96304 0.58939,2.09725 1.31152,2.52023 0.72214,0.42273 1.31153,1.38291 1.31153,2.1329 0,0.78484 -0.97435,0.55722 -2.29384,-0.5359 -1.26373,-1.04471 -6.65053,-4.82117 -11.97361,-8.39185 l -9.67977,-6.49206 0.83099,4.19476 c 0.45663,2.30692 4.05934,14.33606 8.00984,26.73121 6.40362,20.1005 10.10721,36.49245 8.24081,36.49245 -0.36638,0 -1.05665,-2.79546 -1.53453,-6.21215 z m 215.86217,-21.16473 c 0,-1.71094 0.29734,-2.41097 0.66106,-1.55538 0.36372,0.85534 0.36372,2.25541 0,3.11102 -0.36372,0.85534 -0.66106,0.15608 -0.66106,-1.55564 z m 1.23718,-6.84428 c -0.0531,-2.05303 0.50709,-10.45295 1.23718,-18.66584 3.7859,-42.48425 0.7832,-59.70682 -14.0285,-80.51854 -9.61075,-13.50231 -23.51182,-23.99896 -20.67638,-15.61153 2.27259,6.72177 3.10358,12.0718 3.13278,20.1593 0.0265,8.42099 -1.20798,9.6936 -3.24163,3.32849 -0.7009,-2.2026 -0.52302,-2.71014 0.70089,-1.9919 2.30977,1.35352 0.61063,-12.12902 -2.66552,-21.16212 -1.36993,-3.77672 -1.98056,-6.86692 -1.35931,-6.86692 0.6239,0 1.39647,0.70004 1.71772,1.55538 0.32124,0.8556 1.05665,1.13915 1.63276,0.63005 0.57346,-0.50935 -0.0265,-2.04912 -1.33541,-3.42214 -2.75314,-2.88417 -1.34604,-3.22183 5.57529,-1.33894 2.33897,0.63656 4.25316,1.00778 4.25316,0.82464 0,-0.18209 -2.29384,-2.62117 -5.09742,-5.41819 -2.80623,-2.79703 -8.1001,-9.18789 -11.76653,-14.20209 -9.17799,-12.55019 -19.37281,-19.6939 -28.10745,-19.6939 -2.60711,0 -3.44341,1.10508 -5.42396,7.15515 -6.00805,18.35574 -14.89931,27.26606 -34.58542,34.66445 l -3.00003,1.12718 3.42747,4.34798 c 4.3328,5.49156 8.86207,13.72733 8.00188,14.54417 -0.36107,0.3426 -1.82392,-1.53196 -3.25226,-4.16484 -1.42568,-2.63288 -4.43369,-7.17987 -6.67973,-10.10436 -3.2496,-4.23118 -4.54785,-5.08834 -6.35053,-4.19606 -3.17792,1.5728 -25.75521,3.92109 -37.25094,3.87452 -21.70648,-0.0884 -47.83869,-6.95978 -61.45834,-16.15937 l -3.93456,-2.65812 -6.87089,4.57743 c -3.78058,2.51763 -5.37618,3.2606 -3.54961,1.65085 1.82658,-1.60975 4.76024,-3.82302 6.51513,-4.91821 l 3.19385,-1.99137 -5.85937,-3.47938 c -7.32487,-4.34928 -23.93394,-20.17073 -26.9154,-25.63627 -2.28587,-4.19451 -3.39828,-16.05663 -1.50267,-16.05585 0.57611,0 1.6779,-1.70808 2.44516,-3.79623 2.20092,-5.98946 2.5142,-3.58004 0.40089,3.08241 -2.85667,9.005 -1.37789,14.6529 6.05318,23.12488 11.08687,12.63839 32.79336,27.32798 49.198,33.29533 21.1224,7.68402 56.17774,8.85777 82.21968,2.75281 17.90201,-4.19659 26.9446,-11.09862 34.14735,-26.06656 3.71952,-7.73084 11.06564,-30.08234 14.73737,-44.83618 0.93452,-3.76448 2.97083,-11.46177 4.52395,-17.10525 3.54695,-12.90476 3.22571,-15.63051 -1.95401,-16.5665 -3.88147,-0.70107 -3.86288,-0.72266 1.31152,-1.55381 2.88589,-0.46383 12.92142,-1.42791 22.29853,-2.14252 25.73131,-1.96015 43.73156,-5.25223 55.09454,-10.07496 15.33206,-6.5074 55.63083,-40.76733 75.20277,-63.93097 4.04872,-4.791 11.06829,-12.50129 15.59755,-17.13387 8.53021,-8.72432 9.86031,-11.52421 5.93902,-12.49609 -1.72569,-0.42845 -1.56374,-0.60483 0.65576,-0.71357 4.22395,-0.2055 3.7328,3.19218 -1.34338,9.30781 -30.03226,36.18367 -58.79547,63.77204 -82.22233,78.86328 -16.34889,10.53385 -26.57026,13.40112 -60.27426,16.91041 -10.52668,1.09623 -20.41089,2.47081 -21.964,3.05457 -2.03632,0.76637 -3.06376,2.55327 -3.69828,6.43274 -0.48054,2.95441 -1.69383,7.8916 -2.69208,10.9714 -2.38145,7.33725 -11.30722,39.9263 -11.57006,42.24519 -0.13275,1.19898 1.66993,2.11598 5.39211,2.73901 6.81247,1.13941 16.46835,7.48813 20.27283,13.32827 2.49826,3.83421 2.91243,4.04596 3.78855,1.92946 0.53895,-1.30746 1.03276,-4.05714 1.09381,-6.11043 0.18585,-6.02822 6.08239,-22.4709 11.14794,-31.06618 7.30895,-12.40062 16.63562,-21.24902 28.16852,-26.72627 13.617,-6.4676 29.96854,-11.38659 58.00166,-17.44785 33.21814,-7.1822 48.73604,-14.06213 62.28932,-27.61569 6.36646,-6.36537 14.89135,-18.26105 15.00816,-20.94543 0.0531,-1.05045 0.74338,-0.50754 1.57702,1.22786 1.38055,2.87454 1.54781,2.59073 2.21153,-3.73145 l 0.71948,-6.84272 4.14164,8.70922 c 14.20108,29.86928 16.12854,69.67643 5.58327,115.38434 -9.37977,40.65676 -16.73916,54.85105 -39.10671,75.42891 -12.93735,11.89958 -21.88702,17.02877 -39.48372,22.62646 -10.94351,3.48145 -14.71347,4.0431 -30.9482,4.60864 -14.25152,0.4966 -20.03655,0.21332 -25.25874,-1.23957 -7.5824,-2.10843 -8.88862,-1.40293 -8.24082,4.45282 0.59204,5.35446 -2.61242,54.19862 -3.79916,57.92669 l -1.04869,3.28921 -0.0797,-3.73327 z m 60.56098,-64.75329 c 21.54719,-5.18511 32.52521,-11.05126 47.93692,-25.61364 12.56035,-11.86733 23.92863,-28.32223 28.64374,-41.46528 3.33456,-9.28518 9.48066,-33.07109 13.07275,-50.57722 1.50267,-7.33022 2.1956,-17.94107 2.30445,-35.36083 0.15929,-24.28746 0.0531,-25.23307 -3.9797,-39.19869 -4.39917,-15.23093 -8.57268,-25.47525 -9.1249,-22.39909 -0.18584,1.02651 -0.74602,4.66639 -1.24515,8.08853 l -0.90798,6.22203 -1.59028,-4.35526 -1.59295,-4.35553 -2.31241,4.23508 c -3.68501,6.74907 -20.31001,21.63715 -30.27651,27.11076 -11.09219,6.0943 -24.30298,10.2966 -48.1387,15.316 -50.28385,10.5877 -71.03722,22.6608 -84.20023,48.98021 -4.64342,9.28518 -8.6364,23.69642 -8.6364,31.17804 0,4.57665 2.14782,7.54355 14.3471,19.82424 l 5.9868,6.02692 -6.0107,-0.42715 -6.01335,-0.42689 10.0196,9.33304 c 8.36826,7.79355 11.15059,11.49664 16.8719,22.45165 3.76997,7.21525 7.20275,15.17658 7.6355,17.69187 0.95046,5.57012 4.42573,7.97043 13.8586,9.57862 9.33198,1.59128 33.28451,0.56502 43.3519,-1.85741 z m -279.55062,27.38365 c -4.14696,-5.00041 -8.08152,-16.16614 -8.69481,-24.6748 -0.30531,-4.20309 -0.28672,-6.24207 0.0266,-4.53112 2.48233,13.1264 3.99562,17.70799 7.95674,24.1181 4.82396,7.80056 5.19564,10.50965 0.70089,5.08782 z m 94.58887,-15.20623 c 3.04517,-6.37863 3.87085,-19.52533 1.89294,-30.17677 -0.87611,-4.72492 -0.78319,-5.21112 0.5947,-3.11101 0.90001,1.36886 1.87702,7.61716 2.17437,13.88549 0.48319,10.20842 0.18584,12.12201 -2.81686,18.35497 -1.84781,3.82692 -3.65314,6.95822 -4.01421,6.95822 -0.35841,0 0.61594,-2.65993 2.16906,-5.9109 z M 342.77722,410.34342 c 0,-2.39537 0.26814,-3.37531 0.6,-2.17762 0.32921,1.19768 0.32921,3.15757 0,4.35552 -0.33186,1.19768 -0.6,0.21851 -0.6,-2.1779 z m -27.99861,-1.55537 c -0.0796,-0.8556 -0.37699,-3.46975 -0.65842,-5.80919 -0.28141,-2.33944 -0.13274,-3.90028 0.31859,-3.46819 0.98498,0.93625 1.99649,10.83275 1.10444,10.83275 -0.33982,0 -0.68496,-0.70004 -0.76461,-1.55537 z m 0.23894,-15.34775 c 0.0531,-1.44975 0.37434,-1.74449 0.79382,-0.7518 0.37965,0.89826 0.33186,1.9716 -0.1062,2.38522 -0.4354,0.41336 -0.74603,-0.32179 -0.69027,-1.63342 z m 1.3248,-4.25172 c -0.1062,-1.98175 7.30364,-14.93282 8.53285,-14.93282 0.39824,0 -1.01682,2.9401 -3.14605,6.53316 -2.12658,3.59305 -4.18944,7.37314 -4.58237,8.39966 -0.63452,1.65917 -0.72213,1.65917 -0.80443,0 z m 32.71902,-0.62226 c 0,-0.68443 0.5708,-2.08424 1.26904,-3.11102 0.7009,-1.0265 1.2717,-1.30642 1.2717,-0.62199 0,0.68443 -0.5708,2.08424 -1.2717,3.11076 -0.69824,1.02677 -1.26904,1.30694 -1.26904,0.62225 z m -78.02228,-4.43773 c -0.48585,-1.75646 -0.66107,-5.95617 -0.38496,-9.33304 l 0.50178,-6.13956 0.23894,6.60651 c 0.13275,4.03815 0.74603,6.30762 1.54781,5.83754 1.53188,-0.89853 1.55046,0.26014 0.0531,3.73327 -1.0009,2.32722 -1.12834,2.28143 -1.95932,-0.70472 z m 81.73118,-3.27048 c 1.67259,-3.02465 4.1204,-4.88725 4.1204,-3.13547 0,0.61888 -1.26639,2.19169 -2.81419,3.49551 -2.79561,2.35427 -2.80358,2.35166 -1.30621,-0.3603 z m -80.42762,-21.53517 c 0.39558,-3.76423 2.46375,-10.4069 4.59298,-14.76139 4.56378,-9.32862 4.48148,-8.85985 1.57967,-8.9665 -1.63011,-0.0598 -1.34338,-0.45811 0.98231,-1.37225 1.80533,-0.70862 4.37794,-1.83372 5.71866,-2.5002 1.92481,-0.95679 1.73897,-0.33923 -0.88939,2.92917 -4.34077,5.39713 -8.55144,14.72706 -10.85855,24.04891 l -1.84516,7.46654 z m 128.49197,-21.68918 c -5.86999,-1.97706 -12.11432,-3.11231 -17.30731,-3.14613 -6.9054,-0.0468 -8.67887,-0.54109 -11.80634,-3.3056 -3.44076,-3.04026 -3.46731,-3.13417 -0.4009,-1.43858 1.80268,0.9979 7.54258,2.1844 12.75681,2.63653 5.21157,0.45186 12.29486,1.87118 15.74092,3.15315 10.01695,3.72807 16.72588,4.38622 21.53125,2.11208 4.6514,-2.20157 6.21247,-1.93206 3.085,0.53224 -3.80978,2.99838 -13.76832,2.76893 -23.59943,-0.54369 z m -129.20614,-1.95443 c 0,-0.68443 0.58939,-1.24451 1.30887,-1.24451 0.71948,0 6.77,-5.21347 13.44442,-11.5856 7.53993,-7.19704 14.49046,-12.61809 18.35334,-14.31082 8.46118,-3.70908 9.70102,-3.34333 1.82924,0.54109 -5.54345,2.73667 -28.44198,21.90951 -31.39423,26.28871 -1.25577,1.86105 -3.54164,2.06187 -3.54164,0.31087 z m 177.41386,-9.66732 c -6.09034,-3.16721 -8.3709,-6.91505 -9.1249,-14.98745 -1.57701,-16.87945 12.24972,-44.24046 23.73749,-46.9761 2.86994,-0.68286 4.36997,-0.14827 7.46293,2.66332 5.16378,4.69319 6.81248,10.99612 6.97443,26.65785 0.13274,12.06686 -0.1593,13.60793 -3.64784,20.14811 -2.08144,3.89508 -5.32839,8.48577 -7.21602,10.20191 -4.6275,4.20439 -12.58159,5.20722 -18.18609,2.29236 z m 10.8028,-1.53223 c 2.53809,0 0.90001,-4.68512 -2.40534,-6.88227 -4.13368,-2.74578 -8.62047,-2.30692 -9.93199,0.97137 -0.65576,1.64512 -0.60001,3.41043 0.13275,4.2806 1.40444,1.65475 6.04521,2.76139 8.71604,2.07774 0.96108,-0.24713 2.52747,-0.44718 3.48323,-0.44718 z m 4.5744,-41.03371 c 5.04697,-4.7871 5.116,-14.9643 0.1062,-14.9643 -5.72928,0 -10.52138,11.98778 -6.36646,15.92812 2.16374,2.05433 3.25757,1.88601 6.26291,-0.96382 z m -71.12749,35.9563 c -1.26374,-0.69744 -2.2965,-2.08035 -2.2965,-3.07304 0,-2.10687 3.61067,-2.33372 8.5833,-0.53979 2.90978,1.0494 3.23102,1.57957 1.89295,3.11101 -1.86374,2.13082 -4.89564,2.31681 -8.17975,0.50182 z m -48.0033,-15.48432 c -11.67361,-9.3177 -7.66736,-42.51963 6.66912,-55.26571 6.49123,-5.77095 12.67715,-5.07637 15.40374,1.72993 5.54078,13.82436 0.2124,51.33344 -7.85851,55.43663 -4.26643,2.16696 -10.09659,1.38758 -14.21435,-1.90085 z m 8.32312,-1.83763 c 1.84781,-5.52797 -2.62835,-9.86477 -8.39214,-8.12912 -3.26023,0.98177 -2.22216,4.88023 2.17171,8.1593 4.13899,3.08838 5.17706,3.08343 6.22043,-0.0286 z m 5.17175,-40.09773 c 2.66818,-3.61282 2.68411,-10.76745 0.0266,-11.73491 -4.28767,-1.56033 -9.59747,6.70485 -7.78683,12.11758 1.07789,3.21897 5.25405,3.01294 7.76028,-0.38267 z m -37.59873,19.19912 c 0.45399,-17.29515 3.55492,-38.373 6.85762,-46.6236 l 2.37082,-5.92443 -11.43732,-10.87489 c -29.05525,-27.62141 -42.77844,-56.47537 -47.4962,-99.84982 -0.70621,-6.50194 -1.75224,-12.6618 -2.3257,-13.68831 -1.84516,-3.30092 -0.21239,-17.295408 5.14254,-44.176458 1.50003,-7.52846 3.26288,-15.3683 3.91599,-17.42158 1.91418,-6.01444 0.0797,8.0568 -2.92305,22.39936 -4.09917,19.59739 -4.53192,42.809948 -1.14692,61.597778 4.21334,23.3767 6.60009,31.95508 12.03733,43.23242 8.70808,18.06594 26.56761,41.25405 39.65893,51.48925 4.85582,3.79831 4.98857,3.82485 7.68329,1.54784 l 2.73986,-2.31707 -2.25135,4.17187 c -5.94964,11.02889 -9.5019,27.31991 -10.62758,48.71513 -1.1655,22.19488 -2.72127,27.65964 -2.19826,7.72251 z m 126.92028,-20.68426 c 1.1416,-1.65371 3.07172,-3.36933 4.29032,-3.81261 1.29824,-0.47319 0.6239,0.76924 -1.63542,3.00644 -4.63812,4.59303 -5.4399,4.836 -2.6549,0.80617 z m -71.87618,-11.32363 c -0.43541,-2.04236 -1.1894,-4.69371 -1.6779,-5.89139 -0.50443,-1.23541 -0.28673,-2.17764 0.50443,-2.17764 1.52922,0 3.42217,7.62627 2.52481,10.18007 -0.31062,0.88161 -0.9186,-0.0676 -1.35134,-2.11104 z m 127.57603,-1.72187 c 0,-0.64176 2.06551,-2.37794 4.59032,-3.85839 2.52482,-1.48046 4.59033,-2.9976 4.59033,-3.37142 0,-0.37408 -2.36021,-0.3218 -5.24608,0.11706 -2.88589,0.43782 -5.24609,0.46384 -5.24609,0.0572 0,-0.4066 2.14781,-3.22704 4.77617,-6.26833 2.62569,-3.0413 4.42572,-5.86122 3.99828,-6.26652 -0.42479,-0.40478 -4.64077,0.97969 -9.3665,3.07746 -4.72572,2.09751 -8.59126,3.31184 -8.59126,2.6987 0,-0.61316 5.04432,-6.14374 11.209,-12.28981 12.77008,-12.73046 30.36943,-25.796 41.9156,-31.12003 16.20818,-7.47252 52.39185,-16.93043 88.54366,-23.14465 10.99129,-1.8894 33.75443,-3.57824 29.23312,-2.1688 -1.59559,0.49765 -6.24964,4.82456 -10.3435,9.61556 -12.2152,14.2934 -44.98732,44.44206 -55.87242,51.39717 -16.73385,10.69228 -30.52607,14.6001 -66.64602,18.88305 -11.90193,1.41178 -22.97021,2.84619 -24.59236,3.18775 -1.6248,0.34209 -2.95225,0.0963 -2.95225,-0.54525 z m -14.61789,-25.81188 3.93722,-4.53189 -7.17089,-9.46754 c -3.94519,-5.20722 -8.46118,-11.87721 -10.04085,-14.822 -2.58587,-4.8282 -3.0319,-5.14115 -4.53988,-3.18437 -0.92125,1.19352 -1.67259,1.61 -1.67259,0.92557 0,-0.68417 0.81506,-2.30406 1.81595,-3.59956 1.68586,-2.18803 2.09738,-1.83008 5.80893,5.05115 2.19826,4.07327 6.41955,10.1504 9.37977,13.50464 2.96288,3.35451 5.88858,6.95224 6.50451,7.99541 0.8947,1.51922 3.43013,-0.10926 12.74354,-8.19493 15.24179,-13.2315 21.15957,-17.38256 34.5801,-24.25442 20.05779,-10.27085 65.32388,-20.73498 103.62616,-23.95578 5.41069,-0.45472 14.49576,-1.90084 20.18522,-3.21299 13.18425,-3.03974 18.61883,-2.95311 7.36205,0.11706 -4.68856,1.27937 -16.20022,3.20623 -25.57999,4.28217 -9.37712,1.07594 -19.41265,2.2294 -22.29853,2.56368 -14.05505,1.62691 -64.72918,13.5187 -75.19746,17.64634 -9.89748,3.90237 -26.33663,15.40887 -43.1873,30.23036 -9.55765,8.40824 -17.37899,15.77151 -17.37899,16.36307 0,0.59155 -0.63452,1.07567 -1.4071,1.07567 -0.77523,0 0.36373,-2.03924 2.53013,-4.5319 z M 327.10798,211.40159 c -7.0647,-7.25141 -16.11261,-18.41844 -25.04104,-30.90516 -15.57366,-21.77971 -22.43658,-45.4098 -23.23836,-80.00894 -0.40355,-17.438488 1.66727,-37.284048 4.36731,-41.863038 0.99028,-1.67946 1.69914,-1.33452 4.52926,2.20339 4.86378,6.07843 28.76057,43.961068 34.22966,54.262608 6.77532,12.76221 14.8117,35.79579 17.83564,51.10504 3.04252,15.42266 5.79034,40.00928 4.59829,41.14141 -0.44868,0.42637 -2.56198,-1.18104 -4.69652,-3.57199 l -3.87881,-4.34746 0.79116,6.22203 0.79116,6.22203 -2.6257,-3.09255 c -3.6558,-4.30791 -4.64077,-2.56107 -2.03631,3.61101 1.20267,2.85139 1.96463,5.37423 1.69382,5.60628 -0.2708,0.23153 -3.56553,-2.73121 -7.31956,-6.58466 z m 23.22243,-8.53 c 0,-0.7055 0.86285,-1.96015 1.91419,-2.78818 1.1363,-0.8954 1.67789,-2.84775 1.33276,-4.81883 -0.31859,-1.82255 -1.51065,-10.03334 -2.64959,-18.24649 -3.07173,-22.12231 -10.57449,-47.11058 -20.02062,-66.67467 -9.05854,-18.763648 -48.18383,-74.721588 -50.62369,-72.405568 -0.43274,0.40946 -0.78585,0.12488 -0.78585,-0.63395 0,-3.47756 2.57526,-2.12093 7.26116,3.82561 9.73819,12.35666 34.32258,47.5882 39.68283,56.86922 13.64089,23.620198 21.54984,48.483338 27.01098,84.902168 1.74427,11.6267 2.58056,13.47109 5.05228,11.12749 1.18939,-1.12875 1.21063,-2.39094 0.0796,-5.20592 -1.22656,-3.0772 -1.14691,-3.71558 0.45134,-3.71558 1.06196,0 1.5717,0.55358 1.12833,1.23046 -0.44071,0.67688 0.18584,3.21689 1.4071,5.64452 1.21329,2.42737 1.83454,4.7668 1.38055,5.19864 -0.45664,0.43183 -0.82833,0.13267 -0.82833,-0.66674 0,-2.58684 -2.39738,-1.54939 -7.14965,3.09462 -2.56198,2.50047 -4.65671,3.96896 -4.65671,3.2632 z m 111.69441,-15.28686 c -4.85316,-7.28445 -6.75407,-8.24957 -6.75407,-3.431 0,1.79888 -0.62922,2.17608 -2.62305,1.57515 -3.085,-0.92869 -3.46996,0.89592 -0.65576,3.11102 1.08055,0.85222 1.94339,2.18075 1.91418,2.95233 -0.0796,1.93024 -9.48862,-8.11507 -14.24089,-15.19505 -4.95936,-7.38901 -12.30282,-16.20464 -13.57983,-16.30271 -0.5416,-0.0416 -1.03275,0.90424 -1.08851,2.10193 -0.0531,1.19768 -0.36903,1.56969 -0.69293,0.82672 -0.32389,-0.74296 -0.0797,-2.63886 0.52567,-4.2127 1.0832,-2.77517 1.25577,-2.69661 5.76645,2.59541 2.55933,3.0015 5.416,6.85704 6.35053,8.56824 4.31156,7.89005 9.75145,13.27364 13.41522,13.27364 2.84871,0 3.83368,-0.71017 4.46289,-3.21481 1.43365,-5.70955 2.02038,-5.48062 6.53106,2.55952 2.43986,4.35293 5.31777,8.53598 6.39035,9.29585 2.26463,1.60116 2.5434,2.97366 0.60798,2.97366 -0.74072,0 -3.58678,-3.36465 -6.32929,-7.4772 z m -97.09775,0.77417 -3.1142,-1.63732 2.94694,-0.73099 c 2.80357,-0.69536 2.9018,-1.13031 2.02304,-8.91917 l -0.92392,-8.18843 6.33726,3.71428 c 3.48589,2.04262 7.96205,4.58757 9.94526,5.65493 l 3.60802,1.9409 0.23894,-8.43166 0.23894,-8.43166 0.74603,9.33305 c 0.41151,5.13308 0.68762,9.48444 0.61062,9.66967 -0.0796,0.18469 -4.19739,-1.91464 -9.15941,-4.66666 -4.96467,-2.7515 -9.52579,-5.00301 -10.13377,-5.00301 -0.61062,0 -0.75398,1.53977 -0.31858,3.42214 0.43275,1.88212 0.87081,5.49832 0.96904,8.03573 0.13275,3.06185 0.88142,4.7923 2.26728,5.14427 1.47878,0.37668 1.32214,0.55982 -0.53894,0.63083 -1.44426,0.0546 -4.02484,-0.63629 -5.73724,-1.5369 z m 52.30423,-9.14002 c -2.52746,-1.66203 -5.47176,-3.49525 -6.54964,-4.07353 -1.07524,-0.5783 -1.53453,-1.45159 -1.01948,-1.94065 0.51504,-0.4888 3.06906,0.65374 5.67618,2.53922 2.64959,1.91802 5.23015,2.95364 5.85405,2.35115 0.61595,-0.59233 1.3487,-3.5967 1.62746,-6.67675 0.44071,-4.82924 0.5416,-4.53971 0.74072,2.10427 0.13274,4.23716 -0.21239,7.93245 -0.75665,8.21132 -0.53895,0.27887 -3.04783,-0.85274 -5.57264,-2.51503 z m -11.80635,-2.94478 c -1.80533,-1.39046 -5.69742,-4.65521 -8.65233,-7.25531 -2.95225,-2.59984 -6.43018,-5.2897 -7.72576,-5.9775 -1.2956,-0.68781 -1.98587,-1.81812 -1.53188,-2.51218 0.45929,-0.70628 3.28146,1.02262 6.41424,3.92864 3.07438,2.85452 8.20631,7.26831 11.40281,9.80859 3.1965,2.54026 5.26201,4.59979 4.59298,4.57716 -0.67169,-0.026 -2.69738,-1.17922 -4.50006,-2.5694 z"
       id="path241"
       inkscape:export-filename="path241.svg"
       inkscape:export-xdpi="96"
       inkscape:export-ydpi="96" /></g></svg>
