<?xml version="1.0" encoding="UTF-8" standalone="no"?>
<!-- Created with Inkscape (http://www.inkscape.org/) -->

<svg
   width="210mm"
   height="297mm"
   viewBox="0 0 210 297"
   version="1.1"
   id="svg5"
   xml:space="preserve"
   inkscape:version="1.2.2 (732a01da63, 2022-12-09)"
   sodipodi:docname="apriltags.svg"
   xmlns:inkscape="http://www.inkscape.org/namespaces/inkscape"
   xmlns:sodipodi="http://sodipodi.sourceforge.net/DTD/sodipodi-0.dtd"
   xmlns="http://www.w3.org/2000/svg"
   xmlns:svg="http://www.w3.org/2000/svg"><sodipodi:namedview
     id="namedview7"
     pagecolor="#ffffff"
     bordercolor="#000000"
     borderopacity="0.25"
     inkscape:showpageshadow="2"
     inkscape:pageopacity="0.0"
     inkscape:pagecheckerboard="0"
     inkscape:deskcolor="#d1d1d1"
     inkscape:document-units="mm"
     showgrid="false"
     inkscape:zoom="0.60766223"
     inkscape:cx="383.4367"
     inkscape:cy="47.723881"
     inkscape:window-width="1080"
     inkscape:window-height="1849"
     inkscape:window-x="3432"
     inkscape:window-y="-8"
     inkscape:window-maximized="1"
     inkscape:current-layer="layer1" /><defs
     id="defs2"><linearGradient
       id="linearGradient1256"
       inkscape:swatch="gradient"><stop
         style="stop-color:#000000;stop-opacity:1;"
         offset="0"
         id="stop1252" /><stop
         style="stop-color:#000000;stop-opacity:0;"
         offset="1"
         id="stop1254" /></linearGradient></defs><g
     inkscape:label="Layer 1"
     inkscape:groupmode="layer"
     id="layer1"><g
       id="g74"
       transform="matrix(0,0.40000001,-0.40000001,0,40.000001,0)"><path
         style="fill:#ffffff;stroke:none"
         d="M 0,0 V 100 H 100 V 0 Z"
         id="path59" /><path
         style="fill:#000000;stroke:none"
         d="M 10,10 V 90 H 90 V 10 Z"
         id="path61" /><path
         style="fill:#ffffff;stroke:none"
         d="M 20,20 V 30 H 50 V 50 H 40 V 60 H 30 V 40 H 20 V 70 H 30 V 80 H 50 V 70 H 40 V 60 H 50 V 50 H 70 V 60 H 60 V 70 H 70 V 60 H 80 V 20 H 70 V 30 H 50 V 20 Z"
         id="path63" /></g><g
       id="g199"
       transform="matrix(0,0.40000001,-0.40000001,0,40.000001,255)"><path
         style="fill:#ffffff;stroke:none"
         d="M 0,0 V 100 H 100 V 0 Z"
         id="path184" /><path
         style="fill:#000000;stroke:none"
         d="M 10,10 V 90 H 90 V 10 Z"
         id="path186" /><path
         style="fill:#ffffff;stroke:none"
         d="M 20,20 V 30 H 30 V 40 H 20 V 50 H 30 V 40 H 40 V 20 H 20 m 30,0 V 30 H 60 V 40 H 70 V 30 H 80 V 20 H 50 M 40,50 V 60 H 50 V 70 H 40 V 80 H 70 V 70 H 60 V 60 H 50 V 50 H 40 m 30,0 V 60 H 80 V 50 Z"
         id="path188" /></g><g
       id="g216"
       transform="matrix(0,0.40000001,-0.40000001,0,210,255)"><path
         style="fill:#ffffff;stroke:none"
         d="M 0,0 V 100 H 100 V 0 Z"
         id="path201" /><path
         style="fill:#000000;stroke:none"
         d="M 10,10 V 90 H 90 V 10 Z"
         id="path203" /><path
         style="fill:#ffffff;stroke:none"
         d="M 20,20 V 30 H 30 V 40 H 20 V 50 H 30 V 60 H 20 V 70 H 30 V 60 H 40 V 80 H 50 V 70 H 60 V 60 H 50 V 50 H 60 V 40 H 80 V 30 H 70 V 20 H 50 V 40 H 40 V 20 H 20 M 70,60 V 80 H 80 V 60 Z"
         id="path205" /></g><g
       id="g236"
       transform="matrix(0,0.40000001,-0.40000001,0,210,0)"><path
         style="fill:#ffffff;stroke:none"
         d="M 0,0 V 100 H 100 V 0 Z"
         id="path218" /><path
         style="fill:#000000;stroke:none"
         d="M 10,10 V 90 H 90 V 10 Z"
         id="path220" /><path
         style="fill:#ffffff;stroke:none"
         d="M 20,20 V 30 H 30 V 50 H 20 V 60 H 30 V 70 H 40 V 60 H 50 V 80 H 60 V 70 H 70 V 60 H 50 V 40 H 60 V 20 H 50 V 30 H 40 V 20 H 20 m 50,0 V 40 H 80 V 20 Z"
         id="path222" /><path
         style="fill:#000000;stroke:none"
         d="M 30,50 V 60 H 40 V 50 Z"
         id="path224" /></g><text
       xml:space="preserve"
       style="font-size:10.5833px;fill:#000000;stroke-width:0.264583"
       x="27.183525"
       y="-160.19154"
       id="text9984"
       transform="rotate(90)"><tspan
         sodipodi:role="line"
         id="tspan9982"
         style="font-size:10.5833px;stroke-width:0.264583"
         x="27.183525"
         y="-160.19154">0</tspan></text><text
       xml:space="preserve"
       style="font-size:10.5833px;fill:#000000;stroke-width:0.264583"
       x="264.24365"
       y="-162.61696"
       id="text9984-3"
       transform="rotate(90)"><tspan
         sodipodi:role="line"
         id="tspan9982-1"
         style="font-size:10.5833px;stroke-width:0.264583"
         x="264.24365"
         y="-162.61696">1</tspan></text><text
       xml:space="preserve"
       style="font-size:10.5833px;fill:#000000;stroke-width:0.264583"
       x="263.02689"
       y="-40.873199"
       id="text10015"
       transform="rotate(90)"><tspan
         sodipodi:role="line"
         id="tspan10013"
         style="stroke-width:0.264583"
         x="263.02689"
         y="-40.873199">2</tspan></text><text
       xml:space="preserve"
       style="font-size:10.5833px;fill:#000000;stroke-width:0.264583"
       x="25.410875"
       y="-39.608307"
       id="text10019"
       transform="rotate(90)"><tspan
         sodipodi:role="line"
         id="tspan10017"
         style="stroke-width:0.264583"
         x="25.410875"
         y="-39.608307">3</tspan></text></g></svg>
